<?xml version="1.0" encoding="utf-8"?>
<!-- Generator: Adobe Illustrator 22.1.0, SVG Export Plug-In . SVG Version: 6.00 Build 0)  -->
<svg version="1.1" id="Layer_1" xmlns="http://www.w3.org/2000/svg" xmlns:xlink="http://www.w3.org/1999/xlink" x="0px" y="0px"
	 viewBox="0 0 280 50" style="enable-background:new 0 0 280 50;" xml:space="preserve">
<style type="text/css">
	.st0{fill:#B0C5E2;}
	.st1{fill:#85C924;stroke:#5CA00D;stroke-miterlimit:10;}
	.st2{fill:#6D510B;stroke:#453800;stroke-width:0.75;stroke-miterlimit:10;}
	.st3{fill:#BEF16C;}
	.st4{fill:none;stroke:#8EC83F;stroke-width:0.5;stroke-linecap:round;stroke-miterlimit:10;}
	.st5{fill:#BBF16C;}
	.st6{fill:#FFFC88;}
	.st7{fill:#FFFC80;}
	.st8{fill:#FFFF6C;}
	.st9{fill:#FFFC92;}
	.st10{fill:#FFFFFF;}
	.st11{font-family:'00388';}
	.st12{font-size:16px;}
	.st13{fill:#FFFFFF;stroke:#FFFFFF;stroke-width:0.25;stroke-linecap:round;stroke-linejoin:round;stroke-miterlimit:10;}
</style>
<circle class="st0" cx="26.5" cy="26.5" r="20.5"/>
<path class="st1" d="M20.9,20.5c-2.2-3.4-2.4-6.8-0.7-8.7c0.9-1,2.1-1.3,3.2-1.5c6.4-0.9,14.2,1.2,8.6,10.2c0,0,4.3-2.9,7.7,0
	c3.2,2.8,2.7,8.5,0,10.4c-1.2,0.8-2.2,0.5-10.6,0.5c-1.7,0-3.1,0-4,0c-3.9,1.8-8.2,1.7-11-0.4c-0.5-0.4-2.3-1.8-2.8-4.3
	c-0.1-0.5-0.4-2.9,1.2-4.8C14.3,20,17.7,19.3,20.9,20.5z"/>
<path class="st2" d="M20.1,26.8c0.7,0.5,1.5,1.1,2.2,2c0.4,0.4,0.6,0.8,0.9,1.2c0.2,1.8,0.6,6.9-1.5,8.6c0,0-1.2,0.6-2.1,1.2
	c0,0,0,0,0,0c0,0,9.1-0.1,14.1-0.2c0,0-1.8-0.8-2.1-1.5c-0.2-0.7-2.1-6.8-1.6-8.3s3.7-3.1,3.7-3.1s-4.2-0.4-5.6,1.6
	c0-0.6-0.1-1.5-0.4-2.4c-0.5-1.7-1.5-2.9-2.1-3.5c0.4,4.2-0.4,5-0.9,5.2c-0.4,0.1-0.7-0.1-2.4-0.4C21.4,27.1,20.6,26.9,20.1,26.8z"
	/>
<path class="st3" d="M16.7,27.5c-0.3-0.4-0.7-0.8-0.4-1.4c0.1-0.2,0-0.6,0.6-1.2c0.9-0.9,1-1.1,1.2-1.1c0.4,0.1,0.7,0.9,0.6,1.6
	C18.5,26.8,16.8,27.4,16.7,27.5z"/>
<path class="st4" d="M16.8,27.3c0.3-0.5,0.2-1.3,0.8-2.1"/>
<path class="st5" d="M16.5,27.1c-0.1,0.1-0.3,0.2-0.5,0.2c-0.9,0.2-1.8-0.8-1.9-1c-0.2-0.2-0.8-1-0.5-1.4c0.3-0.5,1.7-0.5,2.5,0.3
	C16.7,25.9,16.5,27,16.5,27.1z"/>
<path class="st4" d="M16.3,27.1c0-0.2-0.2-0.8-0.8-1.2c-0.5-0.3-1-0.4-1.2-0.3"/>
<path class="st3" d="M27.3,18.5C27,18,26.8,17.5,27.2,17c0.1-0.2,0.1-0.6,0.8-1c1.1-0.6,1.3-0.8,1.5-0.7c0.4,0.2,0.5,1,0.2,1.7
	C29.2,18.2,27.4,18.5,27.3,18.5z"/>
<path class="st4" d="M27.4,18.3c0.4-0.5,0.5-1.2,1.2-1.8"/>
<path class="st5" d="M27.1,18.1c-0.1,0-0.3,0.1-0.5,0.1c-1,0-1.5-1.2-1.6-1.5c-0.1-0.3-0.5-1.2-0.2-1.5c0.4-0.4,1.8,0,2.3,0.9
	C27.6,17,27.2,18,27.1,18.1z"/>
<path class="st4" d="M27,18c0-0.2,0-0.8-0.5-1.3c-0.4-0.5-0.9-0.6-1.1-0.6"/>
<path class="st3" d="M37.3,27.6c-0.2-0.5-0.5-0.9-0.1-1.5c0.1-0.2,0.1-0.6,0.8-1c1.1-0.6,1.3-0.8,1.5-0.7c0.4,0.2,0.5,1,0.2,1.7
	C39.3,27.4,37.4,27.6,37.3,27.6z"/>
<path class="st4" d="M37.4,27.5c0.4-0.5,0.5-1.2,1.2-1.8"/>
<path class="st5" d="M37.2,27.2c-0.1,0-0.3,0.1-0.5,0.1c-1,0-1.5-1.2-1.6-1.5c-0.1-0.3-0.5-1.2-0.2-1.5c0.4-0.4,1.8,0,2.3,0.9
	C37.7,26.1,37.2,27.1,37.2,27.2z"/>
<path class="st4" d="M37,27.2c0-0.2,0-0.8-0.5-1.3c-0.4-0.5-0.9-0.6-1.1-0.6"/>
<ellipse transform="matrix(0.9846 -0.1749 0.1749 0.9846 -5.8847 2.9455)" class="st6" cx="13.8" cy="34.9" rx="0.7" ry="0.7"/>
<circle class="st7" cx="18.3" cy="38.3" r="0.6"/>
<circle class="st8" cx="15.8" cy="34.1" r="0.5"/>
<circle class="st6" cx="14.5" cy="37.2" r="0.7"/>
<circle class="st9" cx="11.3" cy="31.6" r="0.4"/>
<circle class="st9" cx="20.7" cy="34.6" r="0.6"/>
<circle class="st9" cx="11.4" cy="34.4" r="0.6"/>
<circle class="st9" cx="17.5" cy="36" r="0.8"/>
<circle class="st9" cx="12.5" cy="38.2" r="0.3"/>
<circle class="st8" cx="16.3" cy="39" r="0.5"/>
<circle class="st9" cx="20.3" cy="36.9" r="0.4"/>
<ellipse transform="matrix(0.1749 -0.9846 0.9846 0.1749 2.1591 68.0257)" class="st8" cx="41.7" cy="32.7" rx="0.5" ry="0.5"/>
<ellipse transform="matrix(0.1749 -0.9846 0.9846 0.1749 -4.2519 69.6839)" class="st8" cx="39.4" cy="37.4" rx="0.5" ry="0.5"/>
<circle class="st8" cx="35.7" cy="38.7" r="0.4"/>
<circle class="st8" cx="37.1" cy="34.8" r="0.5"/>
<circle class="st8" cx="37.3" cy="37.1" r="0.7"/>
<circle class="st9" cx="32.5" cy="35" r="0.4"/>
<circle class="st9" cx="33.5" cy="33.1" r="0.4"/>
<circle class="st9" cx="35" cy="35.5" r="0.6"/>
<circle class="st9" cx="39.8" cy="35.4" r="0.6"/>
<circle class="st9" cx="34" cy="37.4" r="0.4"/>
<circle class="st8" cx="36.2" cy="33.2" r="0.4"/>
<circle class="st8" cx="38.9" cy="33.5" r="0.6"/>
<text transform="matrix(1.0445 0 0 1 51.4785 33.4854)" class="st10 st11 st12">Smart Pollen Monitoring ll</text>
<path class="st13" d="M48,14"/>
</svg>
